HIERARCHY
ROOT hip
{
	OFFSET 0.000000 0.000000 0.000000 
	CHANNELS 6 Xposition Yposition Zposition Xrotation Zrotation Yrotation
	JOINT abdomen
	{
		OFFSET 0.000000 3.402643 0.000000 
		CHANNELS 3 Xrotation Zrotation Yrotation
		JOINT chest
		{
			OFFSET 0.000000 8.438565 -0.680529 
			CHANNELS 3 Xrotation Zrotation Yrotation
			JOINT neck
			{
				OFFSET 0.000000 10.207942 -0.272212 
				CHANNELS 3 Xrotation Zrotation Yrotation
				JOINT head
				{
					OFFSET 0.000000 3.130431 0.000000 
					CHANNELS 3 Xrotation Zrotation Yrotation
					End Site
					{
						OFFSET 0.000000 3.130435 0.000000 
					}
				}
			}
			JOINT lCollar
			{
				OFFSET 3.470700 6.669187 -0.816635 
				CHANNELS 3 Yrotation Zrotation Xrotation
				JOINT lShldr
				{
					OFFSET 3.198488 0.000000 0.000000 
					CHANNELS 3 Zrotation Yrotation Xrotation
					JOINT lForeArm
					{
						OFFSET 10.139888 0.000000 0.000000 
						CHANNELS 3 Yrotation Zrotation Xrotation
						JOINT lHand
						{
							OFFSET 8.370511 0.000000 0.000000 
							CHANNELS 3 Zrotation Yrotation Xrotation
							End Site
							{
								OFFSET 4.083176 0.000000 0.000000 
							}
						}
					}
				}
			}
			JOINT rCollar
			{
				OFFSET -3.470700 6.669187 -0.816635 
				CHANNELS 3 Yrotation Zrotation Xrotation
				JOINT rShldr
				{
					OFFSET -3.198488 0.000000 0.000000 
					CHANNELS 3 Zrotation Yrotation Xrotation
					JOINT rForeArm
					{
						OFFSET -10.139888 0.000000 0.000000 
						CHANNELS 3 Yrotation Zrotation Xrotation
						JOINT rHand
						{
							OFFSET -8.370511 0.000000 0.000000 
							CHANNELS 3 Zrotation Yrotation Xrotation
							End Site
							{
								OFFSET -4.083176 0.000000 0.000000 
							}
						}
					}
				}
			}
		}
	}
	JOINT lThigh
	{
		OFFSET 5.308129 -1.633274 1.361059 
		CHANNELS 3 Xrotation Zrotation Yrotation
		JOINT lShin
		{
			OFFSET -2.041588 -20.007561 0.000000 
			CHANNELS 3 Xrotation Zrotation Yrotation
			JOINT lFoot
			{
				OFFSET 0.000000 -19.190928 -1.224953 
				CHANNELS 3 Xrotation Yrotation Zrotation
				End Site
				{
					OFFSET 0.000000 -2.449906 4.627600 
				}
			}
		}
	}
	JOINT rThigh
	{
		OFFSET -5.308129 -1.633274 1.361059 
		CHANNELS 3 Xrotation Zrotation Yrotation
		JOINT rShin
		{
			OFFSET 2.041588 -20.007561 0.000000 
			CHANNELS 3 Xrotation Zrotation Yrotation
			JOINT rFoot
			{
				OFFSET 0.000000 -19.190928 -1.224953 
				CHANNELS 3 Xrotation Yrotation Zrotation
				End Site
				{
					OFFSET 0.000000 -2.449906 4.627600 
				}
			}
		}
	}
}
MOTION
Frames: 6
Frame Time: 0.011111
34.775623 49.448677 -53.952469 1.091670 1.862965 -3.959305 31.414915 -1.126124 1.732636 -35.096664 -1.134977 0.675469 -14.007944 4.162823 0.394341 25.053362 -12.275755 -0.336642 -10.256527 -0.734681 -0.809317 -16.239885 -59.411171 14.240098 -82.051880 5.360521 23.827166 8.524705 12.647240 -67.249397 6.318032 -3.285348 0.526703 24.383982 60.611488 13.870814 82.933334 -4.771333 24.514494 -8.534408 -12.637552 18.265486 -21.327017 9.696786 3.318713 53.435234 -3.468774 -7.521294 -33.909874 -10.571862 -8.175762 -19.849903 -9.832132 -3.023428 54.279427 3.359490 7.586880 -36.829170 -4.348688 -2.434105 
34.776699 49.439335 -53.969707 1.140487 1.904614 -3.917883 31.425343 -1.147933 1.685473 -35.106392 -1.117608 0.662280 -14.056430 4.141694 0.385378 25.093761 -12.270083 -0.362341 -10.256527 -0.734681 -0.809317 -16.250807 -59.451065 14.141430 -82.027397 5.378040 23.813919 8.524705 12.647240 -67.337288 6.318032 -3.285348 0.526703 24.384418 60.641029 13.832519 82.917305 -4.782745 24.492823 -8.534408 -12.637552 18.216656 -21.379795 9.635030 3.285573 53.434624 -3.451318 -7.551550 -33.939190 -10.576787 -8.183897 -19.966179 -9.899981 -3.052791 54.367180 3.349776 7.608703 -36.778221 -4.373399 -2.427549 
34.778496 49.430359 -53.980839 1.120997 1.893325 -3.908960 31.483723 -1.157187 1.702371 -35.125935 -1.125054 0.674144 -14.124495 4.120620 0.374777 25.182461 -12.232145 -0.395677 -10.256527 -0.734681 -0.809317 -16.246761 -59.499962 14.055457 -82.009804 5.388524 23.801994 8.524705 12.647240 -67.366592 6.318032 -3.285348 0.526703 24.437685 60.614704 13.790515 82.918137 -4.783308 24.492733 -8.534408 -12.637552 18.167828 -21.379383 9.644623 3.245336 53.435036 -3.441431 -7.546847 -33.911957 -10.785036 -8.317624 -19.976875 -9.900494 -3.052724 54.406307 3.349844 7.611966 -36.748096 -4.378653 -2.430111 
34.778496 49.429279 -53.988743 1.111224 1.853603 -3.910041 31.503155 -1.126231 1.727536 -35.067280 -1.106583 0.669202 -14.213299 4.158781 0.357684 25.248056 -12.317519 -0.426833 -10.256527 -0.734681 -0.809317 -16.210657 -59.547077 13.931645 -82.000069 5.392715 23.791277 8.524705 12.647240 -67.386124 6.318032 -3.285348 0.526703 24.415096 60.642864 13.742669 82.917305 -4.782745 24.492823 -8.534408 -12.637552 18.216656 -21.423897 9.696438 3.209952 53.454460 -3.468827 -7.532586 -33.781296 -10.920626 -8.403775 -19.963491 -9.840019 -3.049304 54.425922 3.340014 7.618434 -36.768150 -4.370669 -2.436684 
34.778137 49.425327 -53.996643 1.150186 1.787725 -3.900387 31.425116 -1.050732 1.752545 -34.930458 -1.079425 0.660942 -14.214122 4.199037 0.357589 25.193689 -12.396134 -0.425333 -10.256527 -0.734681 -0.809317 -16.183243 -59.643795 13.797048 -81.956871 5.419148 23.757395 8.524705 12.647240 -67.474014 6.318032 -3.285348 0.526703 24.336428 60.677509 13.696997 82.918945 -4.784512 24.502396 -8.534408 -12.637552 18.333845 -21.525393 9.781073 3.206435 53.503120 -3.451232 -7.557179 -33.685375 -10.883978 -8.395862 -20.006704 -9.754441 -3.039452 54.435703 3.340027 7.619247 -36.806980 -4.365800 -2.458899 
34.778854 49.416348 -54.002388 1.140410 1.718521 -3.892290 31.415342 -0.951782 1.771671 -34.862118 -1.089800 0.661515 -14.184297 4.165843 0.388621 25.106234 -12.328621 -0.346062 -10.256527 -0.734681 -0.809317 -16.185415 -59.663567 13.729245 -81.940086 5.430879 23.755098 8.524705 12.647240 -67.434952 6.318032 -3.285348 0.526703 24.321098 60.676594 13.688210 82.918945 -4.784512 24.502396 -8.534408 -12.637552 18.353373 -21.567272 9.860656 3.176745 53.523430 -3.441374 -7.544467 -33.725128 -10.952041 -8.442641 -19.966583 -9.695351 -3.075757 54.425949 3.347937 7.612658 -36.805519 -4.392811 -2.444416 
